# xmcd
#
# Track frame offsets: 
#        150
#        21045
#        42562
#        56280
#        68875
#        88552
#        111622
#        131030
#        149892
#        154837
#
# Disc length: 2384 seconds
#
# Revision: 3
# Processed by: cddbd v1.5.2PL0 Copyright (c) Steve Scherf et al.
# Submitted via: ExactAudioCopyFreeDBPlugin 1.0
#
DISCID=95094e0a
DTITLE=中西俊博 - A Fiddler in Wonderland
DYEAR=1985
DGENRE=New Age
TTITLE0=ALICE IN WONDERLAND
TTITLE1=DREAMIN' ON THE PONY
TTITLE2=SO THIS IS LOVE
TTITLE3=LA-LA-LU
TTITLE4=WINNIE-THE POOH
TTITLE5=WHEN YOU WISH UPON A STAR
TTITLE6=SOME DAY MY PRINCE WILL COME
TTITLE7=SECOND STAR TO THE RIGHT
TTITLE8=DREAMIN' ON THE PONY<Short Take>
TTITLE9=L'INVITATION A LA DANSE
EXTD=YEAR: 1985
EXTT0=
EXTT1=
EXTT2=
EXTT3=
EXTT4=
EXTT5=
EXTT6=
EXTT7=
EXTT8=
EXTT9=
PLAYORDER=
